# xmcd
#
# Track frame offsets:
#	150
#	13392
#	32931
#	45811
#	61738
#	79104
#	97919
#	113390
#	132344
#	142716
#	163133
#	174209
#	189569
#	208356
#	218672
#
# Disc length: 3095 seconds
#
# Revision: 0
# Processed by: cddbd v1.5.1PL2 Copyright (c) Steve Scherf et al.
# Submitted via: SynApp - FreeCDDB Version: 2.0
#
DISCID=c00c150f
DTITLE=Texas Lightning - Meanwhile, Back
DYEAR=2005
DGENRE=Country
TTITLE0=Texas Lightning_Meanwhile, Back At The Ranch(1) - Texas Lightning_Bad Case Of Lovin' You(1)[1-9-61950]
TTITLE1=Texas Lightning_Meanwhile, Back At The Ranch(1) - Texas Lightning_Blue Bayou(14)[1-9-61950]
TTITLE2=Texas Lightning_Meanwhile, Back At The Ranch(1) - Texas Lightning_C'est La Vie(5)[1-9-61950]
TTITLE3=Texas Lightning_Meanwhile, Back At The Ranch(1) - Texas Lightning_Dancing Queen(7)[1-9-61950]
TTITLE4=Texas Lightning_Meanwhile, Back At The Ranch(1) - Texas Lightning_Highway To Hell(6)[1-9-61950]
TTITLE5=Texas Lightning_Meanwhile, Back At The Ranch(1) - Texas Lightning_Kiss(3)[1-9-61950]
TTITLE6=Texas Lightning_Meanwhile, Back At The Ranch(1) - Texas Lightning_Like A Virgin(2)[1-9-61950]
TTITLE7=Texas Lightning_Meanwhile, Back At The Ranch(1) - Texas Lightning_Man In The Mirror(8)[1-9-61950]
TTITLE8=Texas Lightning_Meanwhile, Back At The Ranch(1) - Texas Lightning_Norwegian Wood(9)[1-9-61950]
TTITLE9=Texas Lightning_Meanwhile, Back At The Ranch(1) - Texas Lightning_Over The Mountains (Ueber den Wolken)(4)[1-9-61950]
TTITLE10=Texas Lightning_Meanwhile, Back At The Ranch(1) - Texas Lightning_Raindrops Keep Falling On My Head(12)[1-9-61950]
TTITLE11=Texas Lightning_Meanwhile, Back At The Ranch(1) - Texas Lightning_Smoke, Smoke, Smoke (That Cigarette)(10)[1-9-61950]
TTITLE12=Texas Lightning_Meanwhile, Back At The Ranch(1) - Texas Lightning_Walk On The Wild Side(13)[1-9-61950]
TTITLE13=Texas Lightning_Meanwhile, Back At The Ranch(1) - Texas Lightning_Walkin' After Midnight(11)[1-9-61950]
TTITLE14=Texas Lightning_No No Never(1) - Texas Lightning_No No Never(1)[1-9-109305.1]
EXTD=
EXTT0=
EXTT1=
EXTT2=
EXTT3=
EXTT4=
EXTT5=
EXTT6=
EXTT7=
EXTT8=
EXTT9=
EXTT10=
EXTT11=
EXTT12=
EXTT13=
EXTT14=
PLAYORDER=
